<mxfile host="app.diagrams.net" modified="2024-03-21T02:07:35.642Z" agent="Mozilla/5.0 (Windows NT 10.0; Win64; x64) AppleWebKit/537.36 (KHTML, like Gecko) Chrome/122.0.0.0 Safari/537.36" version="24.0.7" etag="iaRrEwCMJnEnSi6rqUUc" type="github">
  <diagram name="第 1 页" id="mBz5R9IPZVMV0I3eqQDi">
    <mxGraphModel>
      <root>
        <mxCell id="0" />
        <mxCell id="1" parent="0" />
      </root>
    </mxGraphModel>
  </diagram>
</mxfile>
